# Blender 5.2.2 LTS
# www.blender.org
o Holocron_Cristal
v 0.248466 -0.392424 0.190576
v -0.124172 -0.394537 0.311636
v -0.354477 -0.389003 -0.005300
v -0.124172 -0.383473 -0.322237
v 0.248466 -0.385586 -0.201177
v 0.081818 0.465782 0.326653
v -0.290821 0.467896 0.205593
v -0.290821 0.474734 -0.186160
v 0.081818 0.476847 -0.307220
v 0.312119 0.471313 0.009717
v 0.076206 -0.466801 0.293094
v 0.293953 -0.461570 -0.006567
v -0.276127 -0.464801 0.178634
v -0.276127 -0.458336 -0.191768
v 0.076206 -0.456340 -0.306228
v 0.331150 0.039157 0.116668
v 0.331150 0.043155 -0.112252
v -0.021179 0.034691 0.372612
v 0.196571 0.035924 0.301871
v -0.373508 0.039159 0.116668
v -0.238930 0.035926 0.301871
v -0.238930 0.046388 -0.297454
v -0.373508 0.043155 -0.112252
v 0.196571 0.046388 -0.297454
v -0.021179 0.047620 -0.368195
v 0.233768 0.540647 0.196184
v -0.118561 0.538651 0.310645
v -0.336308 0.543880 0.010983
v -0.118561 0.549113 -0.288678
v 0.233768 0.547113 -0.174218
v 0.204556 -0.598379 0.155072
v -0.029865 -0.448251 0.315407
v 0.282085 -0.444516 0.101420
v 0.204556 -0.592654 -0.172882
v -0.329811 -0.444224 0.084892
v -0.203232 -0.438006 -0.271559
v 0.174942 -0.438184 -0.261343
v 0.300388 -0.198131 0.162059
v 0.335373 0.278560 -0.049986
v -0.077785 -0.201491 0.354534
v 0.142574 0.271964 0.327979
v -0.377728 -0.196250 0.054402
v -0.276524 0.273126 0.261442
v -0.184929 -0.189654 -0.323563
v -0.342743 0.280441 -0.157643
v 0.234169 -0.190816 -0.257026
v 0.035427 0.283800 -0.350118
v 0.160877 0.520316 0.275976
v -0.217297 0.520494 0.265759
v -0.324440 0.526824 -0.097004
v -0.012489 0.530561 -0.310991
v 0.287457 0.526536 -0.080476
v 0.065044 0.673197 0.278644
v -0.246910 0.674964 0.177298
v -0.246910 0.680691 -0.150657
v 0.065044 0.682459 -0.252001
v -0.107399 -0.600148 0.256418
v 0.174942 -0.447090 0.248870
v 0.282085 -0.440756 -0.113893
v -0.300198 -0.595514 -0.008905
v -0.203232 -0.447267 0.259086
v -0.107399 -0.590885 -0.274227
v -0.329811 -0.441043 -0.097365
v -0.029865 -0.437023 -0.327880
v 0.335373 0.276595 0.062655
v 0.300388 -0.192407 -0.165896
v 0.035427 0.271356 0.362788
v 0.234169 -0.199722 0.253189
v -0.342743 0.274716 0.170312
v -0.184929 -0.200883 0.319726
v -0.276524 0.282031 -0.248772
v -0.377728 -0.194284 -0.058239
v 0.142574 0.283193 -0.315309
v -0.077785 -0.189047 -0.358371
v 0.287457 0.523354 0.101782
v -0.012489 0.519333 0.332296
v -0.324440 0.523066 0.118310
v -0.217297 0.529400 -0.244454
v 0.160877 0.529578 -0.254670
v 0.257843 0.677824 0.013321
v 0.114952 0.893905 -0.081828
v 0.212696 0.736875 -0.084391
v 0.144989 0.738502 -0.177566
v -0.073177 0.894975 -0.142944
v -0.042805 0.739569 -0.238574
v -0.152355 0.738947 -0.202984
v -0.189445 0.892179 0.017063
v -0.268417 0.736158 -0.043263
v -0.268417 0.734147 0.071907
v -0.073177 0.889388 0.177070
v -0.152355 0.731361 0.231628
v -0.042805 0.730740 0.267218
v 0.114952 0.890454 0.115953
v 0.144989 0.731803 0.206209
v 0.212696 0.733427 0.113035
v 0.296680 0.304382 -0.152967
v 0.277966 0.052464 -0.214967
v 0.228973 0.306009 -0.246142
v -0.074883 0.307733 -0.344856
v -0.135441 0.054810 -0.349271
v -0.184433 0.307112 -0.309266
v -0.372227 0.302599 -0.050831
v -0.390942 0.048673 0.002339
v -0.372227 0.300587 0.064339
v -0.184433 0.296080 0.322774
v -0.135441 0.042535 0.353950
v -0.074883 0.295459 0.358364
v 0.228973 0.297182 0.259651
v 0.277966 0.044877 0.219646
v 0.296680 0.298806 0.166475
v 0.093086 0.039777 -0.349534
v 0.142078 -0.213768 -0.318358
v 0.032528 -0.213147 -0.353948
v -0.320324 0.037432 -0.215230
v -0.271328 -0.214868 -0.255234
v -0.339035 -0.216495 -0.162059
v -0.320324 0.029846 0.219384
v -0.339035 -0.222070 0.157383
v -0.271328 -0.223697 0.250559
v 0.093086 0.027502 0.353688
v 0.032528 -0.225422 0.349273
v 0.142078 -0.224801 0.313682
v 0.348583 0.033639 0.002077
v 0.329872 -0.220289 0.055247
v 0.329872 -0.218278 -0.059923
v 0.110001 -0.649051 -0.227211
v 0.030823 -0.807077 -0.172653
v 0.000450 -0.648428 -0.262801
v -0.187344 -0.649493 -0.201793
v -0.157310 -0.808142 -0.111536
v -0.255051 -0.651117 -0.108619
v -0.255051 -0.654564 0.088808
v -0.157310 -0.811594 0.086243
v -0.187344 -0.656192 0.181982
v 0.226063 -0.651837 -0.067490
v 0.226063 -0.653848 0.047679
v 0.147091 -0.809870 -0.012646
v 0.000450 -0.657259 0.242990
v 0.030823 -0.812663 0.147360
v 0.110001 -0.656636 0.207400
v 0.013702 -0.885567 0.093402
v 0.242149 -0.578964 0.102020
v -0.112499 -0.884850 0.052403
v -0.112499 -0.882534 -0.080273
v 0.013702 -0.881818 -0.121272
v 0.310799 -0.292263 0.107025
v -0.023800 -0.296441 0.346278
v -0.354771 -0.292175 0.102041
v -0.224728 -0.285364 -0.288158
v 0.186615 -0.285420 -0.285076
v 0.276474 -0.116917 0.215737
v -0.134869 -0.119250 0.349371
v -0.389095 -0.113141 -0.000485
v -0.134869 -0.107037 -0.350342
v 0.276474 -0.109369 -0.216707
v 0.126839 0.655080 0.257235
v -0.207756 0.655571 0.229220
v -0.284504 0.661274 -0.097604
v 0.002655 0.664312 -0.271580
v 0.256882 0.660480 -0.052277
v 0.070145 0.967162 -0.047988
v 0.160320 0.801485 -0.116406
v 0.126839 0.663608 -0.231237
v -0.056061 0.967877 -0.088985
v -0.090504 0.802909 -0.197891
v -0.207756 0.663119 -0.203223
v -0.134056 0.966004 0.018352
v -0.245522 0.799184 0.015440
v -0.284504 0.657412 0.123600
v -0.056061 0.964130 0.125689
v -0.090504 0.795462 0.228769
v 0.002655 0.654378 0.297578
v 0.070145 0.964846 0.084690
v 0.160320 0.796882 0.147285
v 0.256882 0.658202 0.078275
v 0.312416 0.374485 -0.097624
v 0.272495 0.223825 -0.208000
v 0.182373 0.377611 -0.276585
v -0.018559 0.378752 -0.341861
v -0.133350 0.226127 -0.339847
v -0.228970 0.377559 -0.273504
v -0.353153 0.374574 -0.102608
v -0.384174 0.220102 0.005332
v -0.353153 0.370713 0.118597
v -0.228970 0.367732 0.289493
v -0.133350 0.214077 0.350510
v -0.018559 0.366539 0.357849
v 0.182373 0.367676 0.292574
v 0.272495 0.216378 0.218663
v 0.312416 0.370798 0.113613
v 0.092514 0.201560 -0.344955
v 0.090996 -0.131767 -0.346094
v -0.023800 -0.284227 -0.353434
v -0.318829 0.199227 -0.211321
v -0.314850 -0.134068 -0.214247
v -0.354771 -0.288489 -0.109196
v -0.318829 0.191679 0.221124
v -0.314850 -0.141516 0.212416
v -0.224728 -0.295299 0.281002
v 0.092514 0.189346 0.354758
v 0.090996 -0.143817 0.344263
v 0.186615 -0.295247 0.277920
v 0.346741 0.195451 0.004901
v 0.341820 -0.137792 -0.000915
v 0.310799 -0.288401 -0.114181
v 0.165401 -0.573259 -0.224804
v 0.048149 -0.713152 -0.224354
v -0.045010 -0.572066 -0.293161
v -0.169193 -0.572770 -0.252818
v -0.202675 -0.714571 -0.142869
v -0.299236 -0.575892 -0.073858
v -0.299236 -0.578171 0.056694
v -0.202675 -0.719174 0.120823
v -0.169193 -0.581297 0.235654
v 0.242149 -0.575103 -0.119185
v 0.203167 -0.716874 -0.011023
v 0.091702 -0.883694 -0.013935
v -0.045010 -0.582001 0.275997
v 0.048149 -0.720600 0.202307
v 0.165401 -0.580807 0.207639
v -0.019127 -0.986188 -0.009416
v -0.026543 -0.986146 -0.011825
v -0.026543 -0.986010 -0.019620
v -0.019127 -0.985968 -0.022029
v -0.014545 -0.986078 -0.015722
v -0.020935 -0.986610 -0.009646
v -0.022980 -0.986749 -0.010185
v -0.017796 -0.986592 -0.010666
v -0.019917 -0.987448 -0.011864
v -0.022152 -0.987894 -0.012759
v -0.021179 -0.988800 -0.015770
v -0.026890 -0.986540 -0.013620
v -0.027012 -0.986652 -0.015732
v -0.024948 -0.986587 -0.010950
v -0.024479 -0.987423 -0.013347
v -0.024326 -0.987842 -0.015753
v -0.024948 -0.986420 -0.020509
v -0.022980 -0.986555 -0.021280
v -0.026890 -0.986467 -0.017839
v -0.024479 -0.987339 -0.018143
v -0.022152 -0.987790 -0.018747
v -0.017796 -0.986415 -0.020793
v -0.016457 -0.986592 -0.019161
v -0.020935 -0.986397 -0.021813
v -0.019917 -0.987313 -0.019626
v -0.018631 -0.987810 -0.017603
v -0.015316 -0.986532 -0.014079
v -0.016457 -0.986712 -0.012304
v -0.015316 -0.986475 -0.017380
v -0.017097 -0.987381 -0.015745
v -0.018631 -0.987875 -0.013903
v -0.015812 1.068458 0.016240
v -0.023228 1.068500 0.013832
v -0.027809 1.068390 0.020139
v -0.023228 1.068280 0.026445
v -0.015812 1.068322 0.024036
v -0.017406 1.068897 0.015365
v -0.019375 1.069061 0.014601
v -0.015465 1.068850 0.018037
v -0.017876 1.069734 0.017762
v -0.020206 1.070204 0.017176
v -0.021179 1.071110 0.020186
v -0.024559 1.068902 0.015082
v -0.025898 1.069024 0.016720
v -0.021420 1.068920 0.014063
v -0.022438 1.069760 0.016281
v -0.023724 1.070185 0.018319
v -0.027039 1.068785 0.021796
v -0.025898 1.068904 0.023577
v -0.027039 1.068842 0.018496
v -0.025261 1.069692 0.020161
v -0.023724 1.070120 0.022020
v -0.021420 1.068709 0.026230
v -0.019375 1.068867 0.025696
v -0.024559 1.068725 0.025209
v -0.022438 1.069625 0.024042
v -0.020206 1.070100 0.023163
v -0.015465 1.068776 0.022255
v -0.015343 1.068962 0.020149
v -0.017406 1.068732 0.024926
v -0.017876 1.069651 0.022560
v -0.018028 1.070152 0.020169
v -0.084885 -0.777547 0.170871
v -0.077156 -0.777591 0.173382
v -0.079594 -0.772923 0.176322
v -0.082340 -0.772258 0.176280
v -0.084595 -0.772895 0.174696
v -0.083347 -0.777103 0.172174
v -0.081337 -0.776955 0.173109
v -0.079163 -0.777126 0.173533
v 0.133106 -0.776399 0.105073
v 0.137886 -0.776284 0.098498
v 0.139851 -0.771622 0.101780
v 0.138950 -0.771005 0.104388
v 0.136761 -0.771696 0.106035
v 0.134815 -0.775915 0.104017
v 0.136322 -0.775723 0.102397
v 0.137402 -0.775853 0.100459
v 0.137886 -0.772425 -0.122551
v 0.133106 -0.772311 -0.129126
v 0.136761 -0.767577 -0.129924
v 0.138950 -0.766943 -0.128254
v 0.139851 -0.767652 -0.125668
v 0.137402 -0.771924 -0.124496
v 0.136322 -0.771728 -0.126428
v 0.134815 -0.771862 -0.128054
v -0.214840 -0.774280 -0.016090
v -0.214840 -0.774422 -0.007963
v -0.218307 -0.769679 -0.009314
v -0.219109 -0.768971 -0.011933
v -0.218307 -0.769587 -0.014574
v -0.215595 -0.773847 -0.014217
v -0.215858 -0.773721 -0.012016
v -0.215595 -0.773924 -0.009819
v -0.077156 -0.771118 -0.197435
v -0.084885 -0.771162 -0.194924
v -0.084595 -0.766379 -0.198585
v -0.082340 -0.765688 -0.200145
v -0.079594 -0.766350 -0.200210
v -0.079163 -0.770649 -0.197570
v -0.081337 -0.770492 -0.197140
v -0.083347 -0.770672 -0.196211
v 0.042530 0.853472 0.199340
v 0.034801 0.853428 0.201852
v 0.037235 0.848660 0.204627
v 0.039986 0.847999 0.204561
v 0.042240 0.848688 0.203001
v 0.040993 0.852984 0.200627
v 0.038982 0.852804 0.201556
v 0.036808 0.852960 0.201985
v 0.172482 0.856733 0.012380
v 0.172482 0.856592 0.020506
v 0.175953 0.851899 0.018990
v 0.176750 0.851283 0.016348
v 0.175953 0.851991 0.013731
v 0.173237 0.856233 0.014236
v 0.173504 0.856033 0.016432
v 0.173237 0.856157 0.018634
v -0.175465 0.854620 0.133542
v -0.180241 0.854735 0.126968
v -0.182205 0.849961 0.130085
v -0.181305 0.849254 0.132670
v -0.179115 0.849887 0.134340
v -0.177170 0.854174 0.132470
v -0.178677 0.854038 0.130844
v -0.179756 0.854236 0.128912
v -0.180241 0.858594 -0.094082
v -0.175465 0.858708 -0.100656
v -0.179115 0.854006 -0.101619
v -0.181305 0.853315 -0.099972
v -0.182205 0.853931 -0.097364
v -0.179756 0.858162 -0.096042
v -0.178677 0.858032 -0.097980
v -0.177170 0.858225 -0.099601
v 0.034801 0.859901 -0.168966
v 0.042530 0.859857 -0.166454
v 0.042240 0.855204 -0.170280
v 0.039986 0.854570 -0.171863
v 0.037235 0.855233 -0.171905
v 0.036808 0.859438 -0.169116
v 0.038982 0.859267 -0.168692
v 0.040993 0.859414 -0.167757
v -0.056736 -0.908550 0.082215
v -0.049171 -0.908593 0.084672
v -0.055069 -0.909018 0.082985
v -0.053047 -0.909191 0.083722
v -0.050976 -0.909041 0.084315
v -0.124008 -0.906795 -0.018316
v -0.124008 -0.906934 -0.010363
v -0.124233 -0.907279 -0.016500
v -0.124313 -0.907475 -0.014350
v -0.124233 -0.907354 -0.012195
v -0.049171 -0.905136 -0.113351
v -0.056736 -0.905179 -0.110894
v -0.050976 -0.905596 -0.113010
v -0.053047 -0.905767 -0.112423
v -0.055069 -0.905620 -0.111680
v 0.081654 0.989244 0.014779
v 0.081654 0.989105 0.022733
v 0.081879 0.989666 0.016612
v 0.081959 0.989786 0.018767
v 0.081879 0.989591 0.020916
v 0.064350 -0.907865 0.042876
v 0.059677 -0.907978 0.049310
v 0.063461 -0.908345 0.044476
v 0.062260 -0.908537 0.046261
v 0.060932 -0.908406 0.047959
v 0.059677 -0.905754 -0.077989
v 0.064350 -0.905866 -0.071555
v 0.060932 -0.906231 -0.076654
v 0.062260 -0.906421 -0.074962
v 0.063461 -0.906292 -0.073171
v 0.006817 0.987448 0.117768
v 0.014381 0.987491 0.115309
v 0.008621 0.987906 0.117426
v 0.010693 0.988077 0.116839
v 0.012714 0.987929 0.116096
v -0.106709 0.988178 0.075972
v -0.102032 0.988066 0.082406
v -0.105816 0.988603 0.077588
v -0.104614 0.988730 0.079378
v -0.103287 0.988543 0.081070
v -0.102032 0.990288 -0.044894
v -0.106709 0.990175 -0.038460
v -0.103287 0.990718 -0.043542
v -0.104614 0.990846 -0.041845
v -0.105816 0.990657 -0.040061
v 0.014381 0.990862 -0.077798
v 0.006817 0.990905 -0.080257
v 0.012714 0.991327 -0.078569
v 0.010693 0.991500 -0.079305
v 0.008621 0.991351 -0.079898
vn -0.5050 -0.6655 0.5496
vn -0.6898 -0.6612 0.2951
vn -0.4884 -0.8032 0.3409
vn 0.7385 -0.6529 -0.1682
vn 0.7383 -0.6585 0.1457
vn 0.6037 -0.7971 -0.0138
vn 0.5682 -0.5092 0.6465
vn 0.4630 -0.4112 0.7852
vn 0.2715 -0.4919 0.8272
vn -0.2884 -0.3742 0.8814
vn -0.5182 -0.3365 0.7863
vn -0.6104 -0.4094 0.6781
vn 0.7552 -0.3682 0.5423
vn 0.9237 -0.2341 0.3032
vn 0.7936 -0.2041 0.5731
vn 0.8007 -0.5369 0.2656
vn 0.8371 -0.5469 -0.0095
vn 0.8787 -0.4774 -0.0083
vn 0.9703 -0.2419 -0.0042
vn 0.8848 -0.3285 0.3305
vn 0.8966 -0.4008 0.1885
vn -0.6898 -0.6504 -0.3180
vn -0.5047 -0.6466 -0.5720
vn -0.4884 -0.7907 -0.3691
vn -0.4477 -0.5107 0.7340
vn -0.7109 -0.4864 0.5081
vn -0.9334 -0.3587 -0.0063
vn -0.9134 -0.3183 -0.2536
vn -0.8402 -0.3910 -0.3757
vn 0.0789 -0.6426 -0.7621
vn 0.3775 -0.6443 -0.6651
vn 0.1865 -0.7871 -0.5880
vn -0.8446 -0.4944 -0.2053
vn -0.7109 -0.4683 -0.5247
vn -0.2884 -0.3432 -0.8939
vn -0.0464 -0.3062 -0.9508
vn 0.0912 -0.3815 -0.9199
vn 0.3778 -0.6672 0.6419
vn 0.0789 -0.6695 0.7386
vn 0.1866 -0.8071 0.5602
vn -0.0743 -0.4820 -0.8730
vn 0.2715 -0.4628 -0.8439
vn 0.4630 -0.3836 -0.7991
vn 0.5932 -0.3098 -0.7431
vn 0.7552 -0.3491 -0.5548
vn 0.9448 -0.1544 0.2890
vn 0.8941 -0.1001 0.4365
vn 0.9848 -0.1069 0.1368
vn 0.9511 -0.0054 0.3090
vn -0.3031 -0.2103 0.9295
vn 0.0145 -0.1665 0.9859
vn -0.1404 -0.1097 0.9840
vn 0.2998 -0.2580 0.9184
vn -0.0068 -0.2457 0.9693
vn 0.1724 -0.1216 0.9775
vn -0.0000 -0.0175 0.9998
vn -0.9810 -0.1940 -0.0034
vn -0.9358 -0.1548 0.3167
vn -0.9809 -0.0955 0.1694
vn -0.7850 -0.2519 0.5660
vn -0.9279 -0.2339 0.2903
vn -0.8782 -0.1126 0.4648
vn -0.9511 -0.0054 0.3090
vn -0.3031 -0.1777 -0.9362
vn -0.5929 -0.1355 -0.7938
vn -0.4658 -0.0771 -0.8815
vn -0.7850 -0.2319 -0.5745
vn -0.5667 -0.2149 -0.7954
vn -0.7152 -0.0924 -0.6928
vn -0.5878 0.0141 -0.8089
vn 0.7936 -0.1839 -0.5799
vn 0.5694 -0.1352 -0.8109
vn 0.6930 -0.0800 -0.7165
vn 0.2998 -0.2258 -0.9269
vn 0.5777 -0.2151 -0.7874
vn 0.4362 -0.0889 -0.8954
vn 0.5878 0.0141 -0.8089
vn 0.6930 -0.1050 0.7132
vn 0.8083 -0.0531 0.5864
vn 0.5878 -0.0141 0.8089
vn 0.8089 0.0048 0.5879
vn -0.4658 -0.1079 0.8783
vn -0.3087 -0.0594 0.9493
vn -0.5878 -0.0141 0.8089
vn -0.3090 -0.0016 0.9511
vn -0.9809 -0.0895 -0.1726
vn -0.9991 -0.0429 -0.0007
vn -0.9511 0.0054 -0.3090
vn -0.9999 0.0150 0.0003
vn -0.1404 -0.0753 -0.9872
vn -0.3087 -0.0263 -0.9508
vn -0.0000 0.0175 -0.9998
vn -0.3090 0.0316 -0.9505
vn 0.8941 -0.0849 -0.4397
vn 0.8083 -0.0326 -0.5879
vn 0.9511 0.0054 -0.3090
vn 0.8089 0.0253 -0.5874
vn 0.5667 0.2149 0.7954
vn 0.2885 0.3432 0.8939
vn 0.3031 0.1777 0.9362
vn 0.7850 0.2319 0.5745
vn 0.5182 0.3089 0.7976
vn -0.0783 0.6421 0.7626
vn -0.2587 0.5330 0.8056
vn 0.0143 0.5179 0.8553
vn -0.5777 0.2151 0.7874
vn -0.7552 0.3491 0.5548
vn -0.7936 0.1839 0.5799
vn -0.2998 0.2258 0.9269
vn -0.5932 0.3098 0.7431
vn -0.7382 0.6531 0.1691
vn -0.8371 0.5469 0.0095
vn -0.8007 0.5273 0.2843
vn -0.9237 0.2341 -0.3032
vn -0.7552 0.3682 -0.5423
vn -0.7936 0.2041 -0.5731
vn -0.9703 0.2419 0.0042
vn -0.8848 0.3285 -0.3305
vn -0.3777 0.6671 -0.6421
vn -0.2587 0.5608 -0.7865
vn -0.5090 0.5440 -0.6671
vn 0.0068 0.2457 -0.9693
vn 0.2884 0.3742 -0.8814
vn 0.3031 0.2103 -0.9295
vn -0.2998 0.2580 -0.9184
vn 0.0464 0.3392 -0.9396
vn 0.5046 0.6656 -0.5498
vn 0.6773 0.5555 -0.4824
vn 0.4863 0.5442 -0.6836
vn 0.9279 0.2339 -0.2903
vn 0.9334 0.3587 0.0063
vn 0.9810 0.1940 0.0034
vn 0.7850 0.2519 -0.5660
vn 0.9134 0.3270 -0.2424
vn 0.6898 0.6611 -0.2953
vn 0.8095 0.5366 -0.2384
vn 0.8448 0.5012 -0.1876
vn 0.8402 0.4038 -0.3619
vn 0.7109 0.4864 -0.5081
vn -0.6773 -0.5555 0.4824
vn -0.4862 -0.5442 0.6837
vn 0.8095 0.5279 0.2570
vn 0.6773 0.5383 0.5015
vn 0.7109 0.4683 0.5247
vn 0.6104 0.4094 -0.6781
vn 0.5182 0.3365 -0.7863
vn 0.5667 0.2426 -0.7874
vn -0.0783 0.6693 -0.7389
vn 0.0143 0.5469 -0.8371
vn 0.0742 0.5128 -0.8553
vn -0.0912 0.4133 -0.9060
vn -0.2715 0.4919 -0.8272
vn 0.4883 0.8034 -0.3407
vn -0.4630 0.4112 -0.7852
vn -0.5932 0.3355 -0.7318
vn -0.5777 0.2424 -0.7794
vn -0.7383 0.6585 -0.1460
vn -0.8007 0.5369 -0.2658
vn -0.7988 0.5037 -0.3289
vn -0.8966 0.4008 -0.1885
vn -0.8787 0.4774 0.0083
vn -0.1864 0.8072 -0.5600
vn -0.8966 0.3940 0.2024
vn -0.8848 0.3168 0.3418
vn -0.9237 0.2234 0.3112
vn -0.3777 0.6443 0.6650
vn -0.5091 0.5204 0.6856
vn -0.5682 0.4857 0.6642
vn -0.4630 0.3836 0.7991
vn -0.2715 0.4628 0.8439
vn -0.6033 0.7974 0.0138
vn -0.0912 0.3815 0.9199
vn 0.6897 0.6504 0.3183
vn 0.0464 0.3062 0.9508
vn 0.0068 0.2118 0.9773
vn 0.5047 0.6460 0.5726
vn 0.4860 0.5206 0.7020
vn 0.4479 0.4847 0.7513
vn 0.6104 0.3854 0.6919
vn -0.1870 0.7871 0.5877
vn 0.8402 0.3910 0.3757
vn 0.9134 0.3183 0.2536
vn 0.9279 0.2236 0.2983
vn 0.8782 0.1126 -0.4648
vn 0.9809 0.0955 -0.1694
vn 0.9358 0.1549 -0.3167
vn 0.8076 0.0698 -0.5856
vn 0.7152 0.1166 -0.6891
vn 0.4658 0.1079 -0.8783
vn 0.5929 0.1631 -0.7886
vn -0.1724 0.1216 -0.9775
vn 0.1404 0.1097 -0.9840
vn -0.0145 0.1665 -0.9859
vn -0.3085 0.0761 -0.9482
vn -0.4362 0.1201 -0.8918
vn -0.6930 0.1050 -0.7132
vn -0.5694 0.1634 -0.8057
vn -0.9848 0.1069 -0.1368
vn -0.8941 0.1002 -0.4365
vn -0.9448 0.1544 -0.2890
vn -0.9982 0.0596 0.0010
vn -0.9848 0.1021 0.1405
vn -0.8941 0.0849 0.4397
vn -0.9448 0.1442 0.2943
vn -0.4362 0.0889 0.8954
vn -0.6930 0.0800 0.7165
vn -0.5694 0.1352 0.8109
vn -0.3085 0.0430 0.9503
vn -0.1724 0.0874 0.9811
vn 0.1404 0.0753 0.9872
vn -0.0145 0.1320 0.9911
vn 0.7152 0.0924 0.6928
vn 0.4658 0.0771 0.8815
vn 0.5929 0.1355 0.7938
vn 0.8076 0.0493 0.5877
vn 0.8782 0.0964 0.4684
vn 0.9809 0.0895 0.1726
vn 0.9358 0.1437 0.3219
vn 0.3087 0.0594 -0.9493
vn 0.3090 0.0016 -0.9511
vn 0.3085 -0.0430 -0.9503
vn 0.1724 -0.0874 -0.9811
vn 0.0145 -0.1320 -0.9911
vn -0.0068 -0.2118 -0.9773
vn -0.8083 0.0531 -0.5864
vn -0.8089 -0.0048 -0.5879
vn -0.8076 -0.0493 -0.5877
vn -0.8782 -0.0964 -0.4684
vn -0.9358 -0.1437 -0.3219
vn -0.9279 -0.2236 -0.2983
vn -0.8083 0.0326 0.5879
vn -0.8089 -0.0253 0.5874
vn -0.8076 -0.0698 0.5856
vn -0.7152 -0.1166 0.6891
vn -0.5929 -0.1631 0.7886
vn -0.5667 -0.2426 0.7874
vn 0.3087 0.0263 0.9508
vn 0.3090 -0.0316 0.9505
vn 0.3085 -0.0761 0.9482
vn 0.4362 -0.1201 0.8918
vn 0.5694 -0.1634 0.8057
vn 0.5777 -0.2424 0.7794
vn 0.9991 0.0429 0.0007
vn 0.9999 -0.0150 -0.0003
vn 0.9982 -0.0595 -0.0010
vn 0.9848 -0.1021 -0.1405
vn 0.9448 -0.1442 -0.2943
vn 0.9237 -0.2234 -0.3112
vn 0.5089 -0.5204 -0.6857
vn 0.2587 -0.5330 -0.8056
vn 0.7988 -0.4919 -0.3464
vn 0.8966 -0.3940 -0.2024
vn -0.6104 -0.3854 -0.6920
vn -0.5182 -0.3089 -0.7976
vn -0.4861 -0.5201 -0.7023
vn -0.6773 -0.5383 -0.5015
vn -0.8402 -0.4038 0.3619
vn -0.9134 -0.3270 0.2424
vn -0.0141 -0.5174 -0.8556
vn -0.8095 -0.5364 0.2387
vn 0.0912 -0.4133 0.9060
vn -0.0463 -0.3392 0.9396
vn 0.5932 -0.3355 0.7318
vn 0.8848 -0.3168 -0.3418
vn 0.2587 -0.5608 0.7865
vn 0.5088 -0.5440 0.6672
vn 0.8006 -0.5274 -0.2844
vn 0.4886 0.7910 0.3683
vn -0.8095 -0.5277 -0.2572
vn -0.0144 -0.5464 0.8374
vn 0.1155 -0.9335 0.3396
vn 0.2908 -0.8568 0.4258
vn -0.1577 -0.8682 0.4706
vn 0.0237 -0.8584 0.5125
vn 0.4135 -0.8647 0.2852
vn -0.1027 -0.9485 0.2996
vn 0.2687 -0.9465 0.1788
vn -0.3026 -0.9311 0.2037
vn -0.3292 -0.8563 0.3980
vn -0.5111 -0.8594 -0.0149
vn -0.4945 -0.8522 0.1708
vn -0.3320 -0.9431 -0.0164
vn -0.3026 -0.9234 -0.2361
vn -0.4943 -0.8459 -0.2004
vn -0.1576 -0.8511 -0.5008
vn -0.3293 -0.8417 -0.4280
vn -0.1023 -0.9375 -0.3325
vn 0.1155 -0.9211 -0.3718
vn 0.0236 -0.8399 -0.5423
vn 0.4134 -0.8542 -0.3153
vn 0.2909 -0.8414 -0.4554
vn 0.2687 -0.9397 -0.2117
vn 0.3740 -0.9273 -0.0162
vn 0.5096 -0.8462 -0.1555
vn 0.5092 -0.8515 0.1255
vn 0.3023 0.9312 -0.2034
vn 0.4947 0.8522 -0.1703
vn 0.1578 0.8680 -0.4709
vn 0.3290 0.8565 -0.3978
vn 0.5112 0.8593 0.0150
vn 0.1024 0.9487 -0.2990
vn 0.3320 0.9431 0.0163
vn -0.1154 0.9336 -0.3392
vn -0.0237 0.8581 -0.5129
vn -0.4135 0.8647 -0.2852
vn -0.2914 0.8566 -0.4258
vn -0.2683 0.9466 -0.1787
vn -0.3738 0.9274 0.0162
vn -0.5092 0.8514 -0.1257
vn -0.4135 0.8541 0.3154
vn -0.5093 0.8464 0.1555
vn -0.2684 0.9398 0.2116
vn -0.1156 0.9212 0.3715
vn -0.2913 0.8412 0.4556
vn 0.1579 0.8510 0.5008
vn -0.0236 0.8399 0.5423
vn 0.1024 0.9377 0.3320
vn 0.3024 0.9236 0.2356
vn 0.3292 0.8419 0.4277
vn 0.4949 0.8456 0.2000
vn -0.2567 -0.5700 0.7805
vn -0.1364 -0.5652 0.8136
vn -0.0745 -0.5128 0.8552
vn 0.6722 -0.5647 0.4788
vn 0.7414 -0.5570 0.3743
vn 0.7988 -0.5036 0.3290
vn 0.6722 -0.5477 -0.4981
vn 0.5939 -0.5412 -0.5953
vn 0.5680 -0.4868 -0.6637
vn -0.8309 -0.5564 -0.0098
vn -0.8251 -0.5532 0.1151
vn -0.8446 -0.5013 0.1879
vn -0.2568 -0.5424 -0.7999
vn -0.3737 -0.5377 -0.7558
vn -0.4477 -0.4848 -0.7514
vn 0.2566 0.5424 0.8000
vn 0.1362 0.5375 0.8322
vn 0.0743 0.4826 0.8727
vn 0.8309 0.5563 0.0096
vn 0.8251 0.5488 0.1344
vn 0.8448 0.4943 0.2049
vn -0.6723 0.5477 0.4981
vn -0.7406 0.5448 0.3933
vn -0.7988 0.4918 0.3463
vn -0.6724 0.5647 -0.4785
vn -0.5937 0.5619 -0.5760
vn -0.5684 0.5081 -0.6471
vn 0.2567 0.5699 -0.7805
vn 0.3737 0.5644 -0.7360
vn 0.4479 0.5107 -0.7339
vn -0.3794 -0.6814 0.6260
vn -0.3737 -0.5642 0.7362
vn -0.2266 -0.6920 0.6854
vn -0.0678 -0.6842 0.7262
vn -0.7238 -0.6674 -0.1751
vn -0.8250 -0.5490 -0.1343
vn -0.7339 -0.6791 -0.0118
vn -0.7238 -0.6731 0.1517
vn -0.0675 -0.6583 -0.7497
vn -0.1362 -0.5369 -0.8326
vn -0.2266 -0.6676 -0.7092
vn -0.3792 -0.6596 -0.6490
vn 0.7238 0.6731 -0.1518
vn 0.8247 0.5536 -0.1153
vn 0.7340 0.6791 0.0118
vn 0.7238 0.6674 0.1752
vn 0.6818 -0.6753 0.2812
vn 0.5938 -0.6867 0.4192
vn 0.4897 -0.6799 0.5458
vn 0.5938 -0.5616 0.5762
vn 0.4894 -0.6605 -0.5694
vn 0.5938 -0.6717 -0.4430
vn 0.6816 -0.6652 -0.3048
vn 0.7411 -0.5440 -0.3935
vn 0.0683 0.6561 0.7515
vn 0.2269 0.6661 0.7105
vn 0.3793 0.6591 0.6494
vn 0.3735 0.5389 0.7551
vn -0.6818 0.6649 0.3051
vn -0.5939 0.6716 0.4430
vn -0.4894 0.6609 0.5690
vn -0.5938 0.5411 0.5955
vn -0.4897 0.6800 -0.5456
vn -0.5938 0.6867 -0.4194
vn -0.6814 0.6755 -0.2819
vn -0.7406 0.5579 -0.3745
vn 0.3794 0.6804 -0.6270
vn 0.2272 0.6904 -0.6869
vn 0.0686 0.6832 -0.7270
vn 0.1362 0.5656 -0.8134
vn -0.6101 -0.6644 0.4317
vn 0.7541 -0.6566 -0.0115
vn -0.2712 -0.4943 0.8259
vn -0.6101 -0.6489 -0.4547
vn -0.8772 -0.4801 -0.0084
vn 0.2330 -0.6441 -0.7286
vn -0.2711 -0.4652 -0.8427
vn 0.2330 -0.6691 0.7057
vn 0.7099 -0.4707 -0.5239
vn -0.2330 0.6441 0.7286
vn -0.7541 0.6566 0.0115
vn -0.2331 0.6691 -0.7057
vn 0.6101 0.6643 -0.4317
vn 0.2711 0.4943 -0.8259
vn -0.7101 0.4882 -0.5074
vn -0.7099 0.4708 0.5238
vn 0.6101 0.6489 0.4547
vn 0.8774 0.4797 0.0084
vn 0.2712 0.4652 0.8426
vn 0.7099 -0.4887 0.5071
vn -0.0002 -0.9998 -0.0175
vn -0.0001 0.9998 0.0174
vt 0.400339 0.202144
vt 0.400333 0.364008
vt 0.307128 0.283073
vt 0.184047 0.279203
vt 0.253745 0.174936
vt 0.295618 0.279555
vt 0.272766 0.962606
vt 0.342850 0.868621
vt 0.375211 0.898386
vt 0.397827 0.818032
vt 0.399661 0.800375
vt 0.429577 0.795048
vt 0.310767 0.844968
vt 0.311150 0.805521
vt 0.324473 0.805141
vt 0.263659 0.963089
vt 0.150894 0.900835
vt 0.227004 0.847664
vt 0.298608 0.797659
vt 0.299213 0.831267
vt 0.270874 0.843946
vt 0.394465 0.369943
vt 0.260959 0.394212
vt 0.302337 0.289101
vt 0.498769 0.889355
vt 0.466292 0.774208
vt 0.399689 0.727604
vt 0.383568 0.720163
vt 0.388303 0.689615
vt 0.253738 0.391207
vt 0.184047 0.286933
vt 0.295618 0.286590
vt 0.501057 0.656896
vt 0.380407 0.646397
vt 0.313823 0.697102
vt 0.301714 0.710313
vt 0.273925 0.696474
vt 0.260966 0.171932
vt 0.394470 0.196207
vt 0.302337 0.277044
vt 0.276552 0.579250
vt 0.230249 0.690945
vt 0.247162 0.731593
vt 0.267891 0.754715
vt 0.258361 0.769917
vt 0.320399 0.792765
vt 0.326619 0.789024
vt 0.320800 0.786463
vt 0.330030 0.779623
vt 0.364422 0.792945
vt 0.351444 0.793001
vt 0.349810 0.785949
vt 0.349405 0.815175
vt 0.360698 0.805681
vt 0.345587 0.790684
vt 0.341937 0.779812
vt 0.365280 0.751290
vt 0.361273 0.763631
vt 0.354071 0.762984
vt 0.381610 0.772463
vt 0.376176 0.758823
vt 0.357251 0.768464
vt 0.345796 0.768559
vt 0.325871 0.737458
vt 0.336404 0.745121
vt 0.333549 0.751786
vt 0.351193 0.728463
vt 0.336462 0.729387
vt 0.339758 0.750460
vt 0.336291 0.761399
vt 0.300521 0.770788
vt 0.311062 0.763106
vt 0.316535 0.767879
vt 0.299721 0.743864
vt 0.296076 0.758212
vt 0.317185 0.761553
vt 0.326536 0.768231
vt 0.332736 0.791142
vt 0.330943 0.786433
vt 0.335874 0.781651
vt 0.332892 0.780810
vt 0.353705 0.780799
vt 0.348684 0.781046
vt 0.345666 0.774887
vt 0.343948 0.777459
vt 0.350391 0.757678
vt 0.349064 0.762530
vt 0.342271 0.763485
vt 0.344184 0.765918
vt 0.327350 0.753648
vt 0.331563 0.756416
vt 0.330370 0.763182
vt 0.333279 0.762115
vt 0.316401 0.774357
vt 0.320333 0.771198
vt 0.326407 0.774418
vt 0.326288 0.771320
vt 0.336157 0.774019
vt 0.336556 0.772960
vt 0.336979 0.774364
vt 0.335344 0.773755
vt 0.336214 0.773106
vt 0.336193 0.771764
vt 0.336518 0.771833
vt 0.336326 0.772137
vt 0.338502 0.772263
vt 0.337616 0.771558
vt 0.339083 0.771587
vt 0.338002 0.772953
vt 0.337650 0.771929
vt 0.612871 0.364874
vt 0.662438 0.525125
vt 0.513652 0.515105
vt 0.337554 0.769488
vt 0.336607 0.770111
vt 0.337092 0.768724
vt 0.338055 0.770178
vt 0.336970 0.770194
vt 0.753591 0.386145
vt 0.909523 0.413926
vt 0.820736 0.540219
vt 0.334623 0.769526
vt 0.334924 0.770617
vt 0.333755 0.769730
vt 0.335434 0.769263
vt 0.335114 0.770297
vt 0.823287 0.274148
vt 0.909532 0.142100
vt 0.989452 0.273724
vt 0.333757 0.772326
vt 0.334889 0.772377
vt 0.333683 0.773217
vt 0.333756 0.771473
vt 0.334643 0.772097
vt 0.753594 0.169879
vt 0.820752 0.015786
vt 0.335571 0.771879
vt 0.334981 0.771761
vt 0.335252 0.771504
vt 0.335603 0.771152
vt 0.335619 0.771511
vt 0.547938 0.775890
vt 0.675976 0.841627
vt 0.503878 0.887971
vt 0.335600 0.771885
vt 0.335959 0.771988
vt 0.335838 0.772338
vt 0.334991 0.771234
vt 0.334667 0.770886
vt 0.333792 0.770621
vt 0.823287 0.281877
vt 0.989452 0.282309
vt 0.335600 0.771122
vt 0.335536 0.770515
vt 0.335864 0.770695
vt 0.336306 0.770922
vt 0.335968 0.771054
vt 0.711717 0.274493
vt 0.336041 0.770364
vt 0.336272 0.769949
vt 0.336255 0.769035
vt 0.746370 0.389149
vt 0.812768 0.543668
vt 0.336335 0.770911
vt 0.336892 0.770664
vt 0.336823 0.771035
vt 0.336754 0.771532
vt 0.336506 0.771244
vt 0.711717 0.281527
vt 0.337196 0.771099
vt 0.337664 0.771189
vt 0.338528 0.770888
vt 0.336330 0.771545
vt 0.336754 0.771557
vt 0.336773 0.771555
vt 0.337181 0.772002
vt 0.336810 0.772051
vt 0.704998 0.284038
vt 0.336866 0.772420
vt 0.746373 0.166875
vt 0.662441 0.030893
vt 0.812783 0.012337
vt 0.336922 0.772893
vt 0.337473 0.773621
vt 0.612873 0.191147
vt 0.513652 0.040917
vt 0.336311 0.772162
vt 0.336001 0.772681
vt 0.607003 0.358939
vt 0.607005 0.197083
vt 0.700207 0.278011
vt 0.335498 0.772504
vt 0.335066 0.772705
vt 0.334543 0.773457
vt 0.331235 0.772197
vt 0.331384 0.773827
vt 0.332270 0.772684
vt 0.329889 0.771394
vt 0.331267 0.770648
vt 0.331484 0.769026
vt 0.332322 0.770204
vt 0.333969 0.767089
vt 0.332466 0.767733
vt 0.333825 0.768223
vt 0.334318 0.765562
vt 0.335452 0.766642
vt 0.337061 0.766348
vt 0.336199 0.767508
vt 0.339670 0.768112
vt 0.338593 0.766882
vt 0.338547 0.768326
vt 0.341229 0.767971
vt 0.340554 0.769383
vt 0.341332 0.770821
vt 0.339963 0.770362
vt 0.340464 0.773848
vt 0.341299 0.772443
vt 0.339913 0.772846
vt 0.341081 0.775287
vt 0.339529 0.775082
vt 0.338402 0.776267
vt 0.338416 0.774822
vt 0.335253 0.776376
vt 0.336848 0.776737
vt 0.336036 0.775542
vt 0.334074 0.777409
vt 0.333788 0.775867
vt 0.332312 0.775161
vt 0.333691 0.774727
vt 0.330820 0.767503
vt 0.327975 0.765343
vt 0.322559 0.761229
vt 0.321431 0.755967
vt 0.321291 0.749654
vt 0.312577 0.736527
vt 0.338304 0.765246
vt 0.339480 0.761876
vt 0.341719 0.755464
vt 0.346368 0.752774
vt 0.352315 0.750700
vt 0.362084 0.738414
vt 0.342764 0.771662
vt 0.346330 0.771735
vt 0.353112 0.771875
vt 0.357108 0.775454
vt 0.360927 0.780449
vt 0.375619 0.785867
vt 0.338046 0.777890
vt 0.339080 0.781305
vt 0.341053 0.787804
vt 0.338886 0.792724
vt 0.335314 0.797920
vt 0.334722 0.813644
vt 0.330657 0.775323
vt 0.327725 0.777364
vt 0.322144 0.781251
vt 0.316788 0.780704
vt 0.310735 0.778900
vt 0.295559 0.783171
vt 0.131537 0.761010
vt 0.156414 0.634674
vt 0.134770 0.769533
vt 0.245585 0.807747
vt 0.346852 0.674797
vt 0.331187 0.701531
vt 0.283693 0.573579
vt 0.411748 0.558924
vt 0.344890 0.530199
vt 0.194551 0.548732
vt 0.430464 0.751875
vt 0.400793 0.745319
vt 0.097799 0.418980
vt 0.186584 0.545282
vt 0.508521 0.662100
vt 0.678568 0.715472
vt 0.384883 0.855524
vt 0.381412 0.824802
vt 0.328301 0.841260
vt 0.267254 0.785501
vt 0.017878 0.287354
vt 0.344900 0.035954
vt 0.194568 0.017410
vt 0.097809 0.147151
vt 0.017879 0.278770
vt 0.704998 0.271982
vt 0.493688 0.520186
vt 0.496505 0.898205
vt 0.402922 0.987090
vt 0.493688 0.045977
vt 0.186601 0.020859
vt 0.301658 0.279617
vt 0.300674 0.277531
vt 0.304895 0.279842
vt 0.303603 0.278325
vt 0.298885 0.278146
vt 0.302812 0.281447
vt 0.299743 0.280522
vt 0.304282 0.283073
vt 0.306109 0.281473
vt 0.304895 0.286303
vt 0.306109 0.284672
vt 0.302812 0.284699
vt 0.301658 0.286528
vt 0.303603 0.287820
vt 0.298884 0.287999
vt 0.300673 0.288614
vt 0.299743 0.285623
vt 0.297710 0.285136
vt 0.297147 0.287302
vt 0.295448 0.283072
vt 0.295493 0.284919
vt 0.297933 0.283072
vt 0.297710 0.281009
vt 0.295493 0.281226
vt 0.297148 0.278842
vt 0.709624 0.275948
vt 0.710188 0.273780
vt 0.711886 0.278010
vt 0.711842 0.276163
vt 0.708451 0.273084
vt 0.709402 0.278010
vt 0.707592 0.275459
vt 0.709624 0.280074
vt 0.711842 0.279857
vt 0.708450 0.282936
vt 0.710188 0.282239
vt 0.707592 0.280560
vt 0.705678 0.281464
vt 0.706662 0.283552
vt 0.702441 0.281240
vt 0.703732 0.282758
vt 0.704523 0.279636
vt 0.703053 0.278010
vt 0.701226 0.279609
vt 0.702441 0.274780
vt 0.701227 0.276411
vt 0.704523 0.276385
vt 0.705677 0.274556
vt 0.703733 0.273263
vt 0.706661 0.272469
vt 0.498224 0.047502
vt 0.495981 0.046401
vt 0.498705 0.041390
vt 0.190124 0.018071
vt 0.188105 0.019275
vt 0.185553 0.014563
vt 0.016733 0.283062
vt 0.017031 0.285367
vt 0.011754 0.285831
vt 0.498223 0.518660
vt 0.500111 0.517018
vt 0.503670 0.521477
vt 0.190106 0.548072
vt 0.192366 0.548720
vt 0.190677 0.553804
vt 0.509117 0.042444
vt 0.507228 0.044085
vt 0.503670 0.039628
vt 0.335589 0.771877
vt 0.335594 0.771882
vt 0.335582 0.771894
vt 0.509117 0.513577
vt 0.511360 0.514679
vt 0.508635 0.519691
vt 0.817212 0.543007
vt 0.819231 0.541804
vt 0.821783 0.546514
vt 0.990597 0.278016
vt 0.990298 0.275712
vt 0.995576 0.275248
vt 0.676783 0.843566
vt 0.503557 0.890240
vt 0.677501 0.845852
vt 0.503888 0.892682
vt 0.397561 0.199182
vt 0.395862 0.197637
vt 0.399015 0.200792
vt 0.395857 0.368515
vt 0.495980 0.519761
vt 0.397558 0.366970
vt 0.680261 0.711312
vt 0.508295 0.659820
vt 0.508725 0.657394
vt 0.679452 0.713567
vt 0.399011 0.365360
vt 0.255481 0.391753
vt 0.188087 0.546868
vt 0.257432 0.392503
vt 0.259340 0.393358
vt 0.751851 0.169333
vt 0.819249 0.014199
vt 0.749901 0.168582
vt 0.817228 0.012997
vt 0.814969 0.012345
vt 0.747992 0.167728
vt 0.255487 0.174389
vt 0.257438 0.173639
vt 0.259346 0.172784
vt 0.192384 0.017423
vt 0.184211 0.285134
vt 0.184268 0.283068
vt 0.184211 0.281003
vt 0.017031 0.280757
vt 0.608327 0.195730
vt 0.609782 0.194121
vt 0.611481 0.192575
vt 0.336189 0.771766
vt 0.336322 0.772141
vt 0.336184 0.771767
vt 0.511360 0.041343
vt 0.611479 0.363445
vt 0.609779 0.361900
vt 0.608326 0.360290
vt 0.336330 0.771534
vt 0.336756 0.771552
vt 0.336330 0.771540
vt 0.751848 0.386690
vt 0.749898 0.387440
vt 0.747989 0.388295
vt 0.814952 0.543656
vt 0.823124 0.275948
vt 0.823067 0.278013
vt 0.823124 0.280078
vt 0.990298 0.280322
vt 0.451035 0.283078
vt 0.186005 0.205488
vt 0.275553 0.967159
vt 0.497544 0.891146
vt 0.268652 0.961197
vt 0.331277 0.423846
vt 0.502325 0.658667
vt 0.185999 0.360650
vt 0.501577 0.651573
vt 0.278619 0.578575
vt 0.331284 0.142302
vt 0.271641 0.577154
vt 0.134757 0.767359
vt 0.134860 0.765187
vt 0.336328 0.771703
vt 0.676054 0.418778
vt 0.821330 0.355592
vt 0.821332 0.200434
vt 0.335585 0.771865
vt 0.335588 0.771137
vt 0.641279 0.777809
vt 0.335619 0.771132
vt 0.336316 0.770904
vt 0.335590 0.771127
vt 0.336330 0.770932
vt 0.336774 0.771536
vt 0.336327 0.770904
vt 0.336329 0.772156
vt 0.336778 0.771545
vt 0.676057 0.137244
vt 0.336303 0.772144
vt 0.335573 0.771889
vt 0.556307 0.278010
vt 0.336321 0.772163
vt 0.131277 0.773569
vt 0.280720 0.578013
vt 0.503473 0.660508
vt 0.496205 0.892865
vt 0.270689 0.961959
vt 0.300605 0.283073
vt 0.706731 0.278010
vt 0.503670 0.044686
vt 0.501392 0.051086
vt 0.500113 0.049143
vt 0.501810 0.042101
vt 0.190694 0.012338
vt 0.187704 0.012482
vt 0.011754 0.280292
vt 0.010709 0.283062
vt 0.498704 0.524773
vt 0.501808 0.524061
vt 0.501392 0.515077
vt 0.185536 0.551578
vt 0.187686 0.553662
vt 0.508635 0.036330
vt 0.505532 0.037043
vt 0.505948 0.046026
vt 0.335586 0.771871
vt 0.503670 0.516395
vt 0.505948 0.509995
vt 0.507229 0.511937
vt 0.505532 0.518978
vt 0.816642 0.548740
vt 0.819631 0.548597
vt 0.995576 0.280786
vt 0.996620 0.278016
vt 0.336316 0.772144
vt 0.336758 0.771545
s 1
f 363/1/1 369/2/2 222/3/3
f 389/4/4 383/5/5 225/6/6
f 295/7/7 140/8/8 219/9/9
f 57/10/10 214/11/11 134/12/12
f 31/13/13 33/14/14 1/15/15
f 292/16/16 137/17/17 216/18/18
f 12/19/19 142/20/20 136/21/21
f 368/22/22 374/23/23 223/24/24
f 287/25/25 134/12/12 213/26/26
f 60/27/27 211/28/28 131/29/29
f 373/30/30 388/31/31 224/32/32
f 311/33/33 131/29/29 210/34/34
f 62/35/35 208/36/36 128/37/37
f 384/38/38 364/39/39 221/40/40
f 319/41/41 128/37/37 207/42/42
f 126/43/43 206/44/44 34/45/45
f 1/15/15 146/46/46 38/47/47
f 12/19/19 146/46/46 33/14/14
f 38/47/47 124/48/48 16/49/49
f 2/50/50 147/51/51 40/52/52
f 11/53/53 147/51/51 32/54/54
f 40/52/52 121/55/55 18/56/56
f 3/57/57 148/58/58 42/59/59
f 13/60/60 148/58/58 35/61/61
f 42/59/59 118/62/62 20/63/63
f 4/64/64 149/65/65 44/66/66
f 14/67/67 149/65/65 36/68/68
f 44/66/66 115/69/69 22/70/70
f 5/71/71 150/72/72 46/73/73
f 15/74/74 150/72/72 37/75/75
f 46/73/73 112/76/76 24/77/77
f 38/47/47 68/78/78 1/15/15
f 16/49/49 151/79/79 38/47/47
f 19/80/80 151/79/79 109/81/81
f 40/52/52 70/82/82 2/50/50
f 18/56/56 152/83/83 40/52/52
f 21/84/84 152/83/83 106/85/85
f 42/59/59 72/86/86 3/57/57
f 20/63/63 153/87/87 42/59/59
f 23/88/88 153/87/87 103/89/89
f 44/66/66 74/90/90 4/64/64
f 22/70/70 154/91/91 44/66/66
f 25/92/92 154/91/91 100/93/93
f 46/73/73 66/94/94 5/71/71
f 24/77/77 155/95/95 46/73/73
f 17/96/96 155/95/95 97/97/97
f 48/98/98 53/99/99 6/100/100
f 26/101/101 156/102/102 48/98/98
f 393/103/103 90/104/104 324/105/105
f 49/106/106 54/107/107 7/108/108
f 27/109/109 157/110/110 49/106/106
f 398/111/111 87/112/112 340/113/113
f 50/114/114 55/115/115 8/116/116
f 28/117/117 158/118/118 50/114/114
f 403/119/119 84/120/120 348/121/121
f 51/122/122 56/123/123 9/124/124
f 29/125/125 159/126/126 51/122/122
f 408/127/127 81/128/128 356/129/129
f 52/130/130 80/131/131 10/132/132
f 30/133/133 160/134/134 52/130/130
f 81/128/128 378/135/135 331/136/136
f 335/137/137 82/138/138 162/139/139
f 356/140/129 81/141/128 162/139/139
f 133/142/140 363/143/1 283/144/141
f 332/145/142 93/146/143 174/147/144
f 83/148/145 82/138/138 30/133/133
f 30/133/133 163/149/146 83/148/145
f 56/123/123 79/150/147 9/124/124
f 84/120/120 409/151/148 355/152/149
f 359/153/150 85/154/151 165/155/152
f 348/156/121 84/157/120 165/155/152
f 378/135/135 408/127/127 252/158/153
f 56/123/123 159/126/126 85/154/151
f 86/159/154 85/154/151 29/125/125
f 83/148/145 163/149/146 56/123/123
f 29/125/125 166/160/155 86/159/154
f 55/115/115 78/161/156 8/116/116
f 87/112/112 404/162/157 347/163/158
f 351/164/159 88/165/160 168/166/161
f 340/167/113 87/168/112 168/166/161
f 409/151/148 403/119/119 253/169/162
f 55/115/115 158/118/118 88/165/160
f 89/170/163 88/165/160 28/117/117
f 86/159/154 166/160/155 55/115/115
f 28/117/117 169/171/164 89/170/163
f 54/107/107 77/172/165 7/108/108
f 90/104/104 399/173/166 339/174/167
f 343/175/168 91/176/169 171/177/170
f 324/105/105 90/104/104 171/177/170
f 404/162/157 398/111/111 254/178/171
f 54/107/107 157/110/110 91/176/169
f 92/179/172 91/176/169 27/109/109
f 379/180/173 93/181/143 332/182/142
f 27/109/109 172/183/174 92/179/172
f 53/99/99 76/184/175 6/100/100
f 93/181/143 394/185/176 323/186/177
f 327/187/178 94/188/179 174/147/144
f 80/131/131 160/134/134 82/138/138
f 399/189/166 393/190/103 255/191/180
f 53/99/99 156/102/102 94/188/179
f 95/192/181 94/188/179 26/101/101
f 95/192/181 175/193/182 80/131/131
f 26/101/101 175/193/182 95/192/181
f 80/131/131 75/194/183 10/132/132
f 89/170/163 169/171/164 54/107/107
f 96/195/184 39/196/185 17/96/96
f 30/133/133 176/197/186 96/195/184
f 10/132/132 176/197/186 52/130/130
f 17/96/96 177/198/187 96/195/184
f 24/77/77 177/198/187 97/97/97
f 96/195/184 98/199/188 30/133/133
f 73/200/189 98/199/188 24/77/77
f 9/124/124 178/201/190 73/200/189
f 30/133/133 178/201/190 79/150/147
f 99/202/191 47/203/192 25/92/92
f 29/125/125 179/204/193 99/202/191
f 9/124/124 179/204/193 51/122/122
f 25/92/92 180/205/194 99/202/191
f 22/70/70 180/205/194 100/93/93
f 99/202/191 101/206/195 29/125/125
f 71/207/196 101/206/195 22/70/70
f 8/116/116 181/208/197 71/207/196
f 29/125/125 181/208/197 78/161/156
f 102/209/198 45/210/199 23/88/88
f 28/117/117 182/211/200 102/209/198
f 8/116/116 182/211/200 50/114/114
f 23/88/88 183/212/201 102/209/198
f 20/63/63 183/212/201 103/89/89
f 102/209/198 104/213/202 28/117/117
f 69/214/203 104/213/202 20/63/63
f 7/108/108 184/215/204 69/214/203
f 28/117/117 184/215/204 77/172/165
f 105/216/205 43/217/206 21/84/84
f 27/109/109 185/218/207 105/216/205
f 7/108/108 185/218/207 49/106/106
f 21/84/84 186/219/208 105/216/205
f 18/56/56 186/219/208 106/85/85
f 105/216/205 107/220/209 27/109/109
f 67/221/210 107/220/209 18/56/56
f 6/100/100 187/222/211 67/221/210
f 27/109/109 187/222/211 76/184/175
f 108/223/212 41/224/213 19/80/80
f 26/101/101 188/225/214 108/223/212
f 6/100/100 188/225/214 48/98/98
f 19/80/80 189/226/215 108/223/212
f 16/49/49 189/226/215 109/81/81
f 108/223/212 110/227/216 26/101/101
f 65/228/217 110/227/216 16/49/49
f 10/132/132 190/229/218 65/228/217
f 26/101/101 190/229/218 75/194/183
f 24/77/77 191/230/219 73/200/189
f 25/92/92 191/230/219 111/231/220
f 73/200/189 47/203/192 9/124/124
f 24/77/77 192/232/221 111/231/220
f 113/233/222 112/76/76 15/74/74
f 25/92/92 192/232/221 113/233/222
f 15/74/74 193/234/223 113/233/222
f 4/64/64 193/234/223 64/235/224
f 113/233/222 74/90/90 25/92/92
f 22/70/70 194/236/225 71/207/196
f 23/88/88 194/236/225 114/237/226
f 71/207/196 45/210/199 8/116/116
f 22/70/70 195/238/227 114/237/226
f 116/239/228 115/69/69 14/67/67
f 23/88/88 195/238/227 116/239/228
f 14/67/67 196/240/229 116/239/228
f 3/57/57 196/240/229 63/241/230
f 116/239/228 72/86/86 23/88/88
f 20/63/63 197/242/231 69/214/203
f 21/84/84 197/242/231 117/243/232
f 69/214/203 43/217/206 7/108/108
f 20/63/63 198/244/233 117/243/232
f 119/245/234 118/62/62 13/60/60
f 21/84/84 198/244/233 119/245/234
f 13/60/60 199/246/235 119/245/234
f 2/50/50 199/246/235 61/247/236
f 119/245/234 70/82/82 21/84/84
f 18/56/56 200/248/237 67/221/210
f 19/80/80 200/248/237 120/249/238
f 67/221/210 41/224/213 6/100/100
f 18/56/56 201/250/239 120/249/238
f 122/251/240 121/55/55 11/53/53
f 19/80/80 201/250/239 122/251/240
f 11/53/53 202/252/241 122/251/240
f 1/15/15 202/252/241 58/253/242
f 122/251/240 68/78/78 19/80/80
f 16/49/49 203/254/243 65/228/217
f 17/96/96 203/254/243 123/255/244
f 65/228/217 39/196/185 10/132/132
f 16/49/49 204/256/245 123/255/244
f 125/257/246 124/48/48 12/19/19
f 17/96/96 204/256/245 125/257/246
f 12/19/19 205/258/247 125/257/246
f 5/71/71 205/258/247 59/259/248
f 125/257/246 66/94/94 17/96/96
f 300/260/249 127/261/250 207/42/42
f 15/74/74 206/44/44 126/43/43
f 34/45/45 37/75/75 5/71/71
f 303/262/251 135/263/252 216/18/18
f 129/264/253 209/265/254 62/35/35
f 126/43/43 128/37/37 15/74/74
f 92/179/172 172/183/174 53/99/99
f 64/235/224 62/35/35 4/64/64
f 15/74/74 208/36/36 64/235/224
f 316/266/255 130/267/256 210/34/34
f 14/67/67 209/265/254 129/264/253
f 62/35/35 36/68/68 4/64/64
f 374/23/23 130/268/256 316/269/255
f 132/270/257 212/271/258 60/27/27
f 129/264/253 131/29/29 14/67/67
f 127/272/250 373/30/30 315/273/259
f 63/241/230 60/27/27 3/57/57
f 14/67/67 211/28/28 63/241/230
f 308/274/260 133/142/140 213/26/26
f 13/60/60 212/271/258 132/270/257
f 60/27/27 35/61/61 3/57/57
f 369/275/2 133/142/140 308/274/260
f 138/276/261 218/277/262 57/10/10
f 132/270/257 134/12/12 13/60/60
f 31/13/13 220/278/263 140/8/8
f 61/247/236 57/10/10 2/50/50
f 13/60/60 214/11/11 61/247/236
f 12/19/19 215/279/264 59/259/248
f 388/31/31 127/272/250 300/280/249
f 59/259/248 34/45/45 5/71/71
f 136/21/21 135/263/252 12/19/19
f 139/281/265 384/38/38 291/282/266
f 137/283/17 389/4/4 299/284/267
f 136/21/21 142/20/20 31/13/13
f 394/185/176 379/180/173 256/285/268
f 130/268/256 368/22/22 307/286/269
f 284/287/270 139/288/265 219/9/9
f 11/53/53 218/277/262 138/276/261
f 57/10/10 32/54/54 2/50/50
f 364/39/39 139/281/265 284/289/270
f 34/45/45 215/279/264 135/263/252
f 138/276/261 140/8/8 11/53/53
f 383/5/5 137/283/17 292/290/16
f 58/253/242 31/13/13 1/15/15
f 11/53/53 220/278/263 58/253/242
f 221/40/40 229/291/271 228/292/272
f 227/293/273 229/291/271 226/294/274
f 229/291/271 248/295/275 228/292/272
f 230/296/276 251/297/277 229/291/271
f 222/3/3 235/298/278 234/299/279
f 233/300/280 235/298/278 232/301/281
f 235/298/278 227/293/273 234/299/279
f 236/302/282 230/296/276 235/298/278
f 223/24/24 240/303/283 239/304/284
f 238/305/285 240/303/283 237/306/286
f 240/303/283 233/300/280 239/304/284
f 241/307/287 236/302/282 240/303/283
f 224/32/32 245/308/288 244/309/289
f 243/310/290 245/308/288 242/311/291
f 245/308/288 238/305/285 244/309/289
f 246/312/292 241/307/287 245/308/288
f 225/6/6 250/313/293 249/314/294
f 248/295/275 250/313/293 247/315/295
f 250/313/293 243/310/290 249/314/294
f 251/297/277 246/312/292 250/313/293
f 252/158/153 260/316/296 259/317/297
f 258/318/298 260/316/296 257/319/299
f 260/316/296 279/320/300 259/317/297
f 261/321/301 282/322/302 260/316/296
f 253/169/162 266/323/303 265/324/304
f 264/325/305 266/323/303 263/326/306
f 266/323/303 258/318/298 265/324/304
f 267/327/307 261/321/301 266/323/303
f 254/178/171 271/328/308 270/329/309
f 269/330/310 271/328/308 268/331/311
f 271/328/308 264/325/305 270/329/309
f 272/332/312 267/327/307 271/328/308
f 255/191/180 276/333/313 275/334/314
f 274/335/315 276/333/313 273/336/316
f 276/333/313 269/330/310 275/334/314
f 277/337/317 272/332/312 276/333/313
f 256/285/268 281/338/318 280/339/319
f 279/320/300 281/338/318 278/340/320
f 281/338/318 274/335/315 280/339/319
f 282/322/302 277/337/317 281/338/318
f 289/341/321 290/342/322 285/343/323
f 297/344/324 298/345/325 293/346/326
f 305/347/327 306/348/328 301/349/329
f 313/350/330 314/351/331 309/352/332
f 321/353/333 322/354/334 317/355/335
f 329/356/336 330/357/337 325/358/338
f 337/359/339 338/360/340 333/361/341
f 345/362/342 346/363/343 341/364/344
f 353/365/345 354/366/346 349/367/347
f 361/368/348 362/369/349 357/370/350
f 283/144/141 365/371/351 288/372/352
f 288/372/352 366/373/353 289/374/321
f 366/375/353 290/342/322 289/341/321
f 367/376/354 284/289/270 290/342/322
f 222/3/3 365/377/351 363/1/1
f 234/299/279 366/375/353 365/377/351
f 366/375/353 226/294/274 367/376/354
f 367/376/354 221/40/40 364/39/39
f 307/286/269 370/378/355 312/379/356
f 312/379/356 371/380/357 313/350/330
f 371/381/357 314/382/331 313/383/330
f 372/384/358 308/274/260 314/382/331
f 223/24/24 370/378/355 368/22/22
f 239/304/284 371/380/357 370/378/355
f 371/380/357 232/301/281 372/385/358
f 372/385/358 222/3/3 369/2/2
f 315/273/259 375/386/359 320/387/360
f 320/387/360 376/388/361 321/353/333
f 376/388/361 322/354/334 321/353/333
f 377/389/362 316/269/255 322/354/334
f 224/32/32 375/386/359 373/30/30
f 244/309/289 376/388/361 375/386/359
f 376/388/361 237/306/286 377/389/362
f 377/389/362 223/24/24 374/23/23
f 331/136/136 380/390/363 336/391/364
f 336/391/364 381/392/365 337/393/339
f 381/392/365 338/394/340 337/393/339
f 382/395/366 332/182/142 338/394/340
f 252/158/153 380/390/363 378/135/135
f 259/317/297 381/392/365 380/390/363
f 381/392/365 278/340/320 382/395/366
f 382/395/366 256/285/268 379/180/173
f 225/6/6 385/396/367 247/315/295
f 247/315/295 386/397/368 248/295/275
f 386/397/368 228/292/272 248/295/275
f 387/398/369 221/40/40 228/292/272
f 292/290/16 385/396/367 383/5/5
f 298/345/325 386/397/368 385/396/367
f 386/397/368 296/399/370 387/398/369
f 387/398/369 291/282/266 384/38/38
f 224/32/32 390/400/371 242/311/291
f 242/311/291 391/401/372 243/310/290
f 391/401/372 249/314/294 243/310/290
f 392/402/373 225/6/6 249/314/294
f 300/280/249 390/400/371 388/31/31
f 306/348/328 391/401/372 390/400/371
f 391/401/372 304/403/374 392/402/373
f 392/402/373 299/284/267 389/4/4
f 255/191/180 395/404/375 273/336/316
f 273/336/316 396/405/376 274/335/315
f 396/405/376 280/339/319 274/335/315
f 397/406/377 256/285/268 280/339/319
f 324/105/105 395/407/375 393/103/103
f 330/408/337 396/409/376 395/407/375
f 396/405/376 328/410/378 397/406/377
f 397/406/377 323/186/177 394/185/176
f 254/178/171 400/411/379 268/331/311
f 268/331/311 401/412/380 269/330/310
f 401/412/380 275/334/314 269/330/310
f 402/413/381 255/191/180 275/334/314
f 340/113/113 400/411/379 398/111/111
f 346/363/343 401/412/380 400/411/379
f 401/414/380 344/415/382 402/416/381
f 402/416/381 339/174/167 399/173/166
f 253/169/162 405/417/383 263/326/306
f 263/326/306 406/418/384 264/325/305
f 406/418/384 270/329/309 264/325/305
f 407/419/385 254/178/171 270/329/309
f 348/121/121 405/417/383 403/119/119
f 354/366/346 406/418/384 405/417/383
f 406/418/384 352/420/386 407/419/385
f 407/419/385 347/163/158 404/162/157
f 252/158/153 410/421/387 257/319/299
f 257/319/299 411/422/388 258/318/298
f 411/422/388 265/324/304 258/318/298
f 412/423/389 253/169/162 265/324/304
f 356/129/129 410/421/387 408/127/127
f 362/369/349 411/422/388 410/421/387
f 411/422/388 360/424/390 412/423/389
f 412/423/389 355/152/149 409/151/148
f 363/1/1 143/425/391 369/2/2
f 389/4/4 217/426/392 383/5/5
f 139/288/265 291/427/266 219/9/9
f 291/427/266 295/7/7 219/9/9
f 134/12/12 287/25/25 286/428/393
f 286/428/393 57/10/10 134/12/12
f 31/13/13 142/20/20 33/14/14
f 136/21/21 293/429/326 216/18/18
f 293/429/326 292/16/16 216/18/18
f 12/19/19 33/14/14 142/20/20
f 368/22/22 144/430/394 374/23/23
f 133/142/140 283/144/141 213/26/26
f 283/144/141 287/25/25 213/26/26
f 131/29/29 311/33/33 310/431/395
f 310/431/395 60/27/27 131/29/29
f 373/30/30 145/432/396 388/31/31
f 130/267/256 307/433/269 210/34/34
f 307/433/269 311/33/33 210/34/34
f 128/37/37 319/41/41 318/434/397
f 318/434/397 62/35/35 128/37/37
f 384/38/38 141/435/398 364/39/39
f 127/261/250 315/436/259 207/42/42
f 315/436/259 319/41/41 207/42/42
f 34/45/45 302/437/399 126/43/43
f 302/437/399 301/438/329 126/43/43
f 1/15/15 33/14/14 146/46/46
f 12/19/19 124/48/48 146/46/46
f 38/47/47 146/46/46 124/48/48
f 2/50/50 32/54/54 147/51/51
f 11/53/53 121/55/55 147/51/51
f 40/52/52 147/51/51 121/55/55
f 3/57/57 35/61/61 148/58/58
f 13/60/60 118/62/62 148/58/58
f 42/59/59 148/58/58 118/62/62
f 4/64/64 36/68/68 149/65/65
f 14/67/67 115/69/69 149/65/65
f 44/66/66 149/65/65 115/69/69
f 5/71/71 37/75/75 150/72/72
f 15/74/74 112/76/76 150/72/72
f 46/73/73 150/72/72 112/76/76
f 38/47/47 151/79/79 68/78/78
f 16/49/49 109/81/81 151/79/79
f 19/80/80 68/78/78 151/79/79
f 40/52/52 152/83/83 70/82/82
f 18/56/56 106/85/85 152/83/83
f 21/84/84 70/82/82 152/83/83
f 42/59/59 153/87/87 72/86/86
f 20/63/63 103/89/89 153/87/87
f 23/88/88 72/86/86 153/87/87
f 44/66/66 154/91/91 74/90/90
f 22/70/70 100/93/93 154/91/91
f 25/92/92 74/90/90 154/91/91
f 46/73/73 155/95/95 66/94/94
f 24/77/77 97/97/97 155/95/95
f 17/96/96 66/94/94 155/95/95
f 48/98/98 156/102/102 53/99/99
f 26/101/101 94/188/179 156/102/102
f 393/103/103 170/439/400 90/104/104
f 49/106/106 157/110/110 54/107/107
f 27/109/109 91/176/169 157/110/110
f 398/111/111 167/440/401 87/112/112
f 50/114/114 158/118/118 55/115/115
f 28/117/117 88/165/160 158/118/118
f 403/119/119 164/441/402 84/120/120
f 51/122/122 159/126/126 56/123/123
f 29/125/125 85/154/151 159/126/126
f 408/127/127 161/442/403 81/128/128
f 52/130/130 160/134/134 80/131/131
f 30/133/133 82/138/138 160/134/134
f 81/128/128 161/442/403 378/135/135
f 81/141/128 331/443/136 162/139/139
f 331/443/136 335/137/137 162/139/139
f 83/148/145 357/444/350 162/139/139
f 357/444/350 356/140/129 162/139/139
f 133/142/140 143/445/391 363/143/1
f 95/192/181 333/361/341 174/147/144
f 333/361/341 332/145/142 174/147/144
f 83/148/145 162/139/139 82/138/138
f 30/133/133 79/150/147 163/149/146
f 56/123/123 163/149/146 79/150/147
f 84/120/120 164/441/402 409/151/148
f 84/157/120 355/446/149 165/155/152
f 355/446/149 359/153/150 165/155/152
f 86/159/154 349/447/347 165/155/152
f 349/447/347 348/156/121 165/155/152
f 378/135/135 161/442/403 408/127/127
f 85/154/151 359/153/150 358/448/404
f 358/448/404 56/123/123 85/154/151
f 86/159/154 165/155/152 85/154/151
f 56/123/123 358/448/404 83/148/145
f 358/448/404 357/444/350 83/148/145
f 29/125/125 78/161/156 166/160/155
f 55/115/115 166/160/155 78/161/156
f 87/112/112 167/440/401 404/162/157
f 87/168/112 347/449/158 168/166/161
f 347/449/158 351/164/159 168/166/161
f 89/170/163 341/450/344 168/166/161
f 341/450/344 340/167/113 168/166/161
f 409/151/148 164/441/402 403/119/119
f 88/165/160 351/164/159 350/451/405
f 350/451/405 55/115/115 88/165/160
f 89/170/163 168/166/161 88/165/160
f 55/115/115 350/451/405 86/159/154
f 350/451/405 349/447/347 86/159/154
f 28/117/117 77/172/165 169/171/164
f 54/107/107 169/171/164 77/172/165
f 90/104/104 170/439/400 399/173/166
f 90/104/104 339/174/167 171/177/170
f 339/174/167 343/175/168 171/177/170
f 92/179/172 325/452/338 171/177/170
f 325/452/338 324/105/105 171/177/170
f 404/162/157 167/440/401 398/111/111
f 91/176/169 343/175/168 342/453/406
f 342/453/406 54/107/107 91/176/169
f 92/179/172 171/177/170 91/176/169
f 379/180/173 173/454/407 93/181/143
f 27/109/109 76/184/175 172/183/174
f 53/99/99 172/183/174 76/184/175
f 93/181/143 173/454/407 394/185/176
f 93/146/143 323/455/177 174/147/144
f 323/455/177 327/187/178 174/147/144
f 82/138/138 335/137/137 334/456/408
f 334/456/408 80/131/131 82/138/138
f 399/189/166 170/457/400 393/190/103
f 94/188/179 327/187/178 326/458/409
f 326/458/409 53/99/99 94/188/179
f 95/192/181 174/147/144 94/188/179
f 80/131/131 334/456/408 95/192/181
f 334/456/408 333/361/341 95/192/181
f 26/101/101 75/194/183 175/193/182
f 80/131/131 175/193/182 75/194/183
f 54/107/107 342/453/406 89/170/163
f 342/453/406 341/450/344 89/170/163
f 96/195/184 176/197/186 39/196/185
f 30/133/133 52/130/130 176/197/186
f 10/132/132 39/196/185 176/197/186
f 17/96/96 97/97/97 177/198/187
f 24/77/77 98/199/188 177/198/187
f 96/195/184 177/198/187 98/199/188
f 73/200/189 178/201/190 98/199/188
f 9/124/124 79/150/147 178/201/190
f 30/133/133 98/199/188 178/201/190
f 99/202/191 179/204/193 47/203/192
f 29/125/125 51/122/122 179/204/193
f 9/124/124 47/203/192 179/204/193
f 25/92/92 100/93/93 180/205/194
f 22/70/70 101/206/195 180/205/194
f 99/202/191 180/205/194 101/206/195
f 71/207/196 181/208/197 101/206/195
f 8/116/116 78/161/156 181/208/197
f 29/125/125 101/206/195 181/208/197
f 102/209/198 182/211/200 45/210/199
f 28/117/117 50/114/114 182/211/200
f 8/116/116 45/210/199 182/211/200
f 23/88/88 103/89/89 183/212/201
f 20/63/63 104/213/202 183/212/201
f 102/209/198 183/212/201 104/213/202
f 69/214/203 184/215/204 104/213/202
f 7/108/108 77/172/165 184/215/204
f 28/117/117 104/213/202 184/215/204
f 105/216/205 185/218/207 43/217/206
f 27/109/109 49/106/106 185/218/207
f 7/108/108 43/217/206 185/218/207
f 21/84/84 106/85/85 186/219/208
f 18/56/56 107/220/209 186/219/208
f 105/216/205 186/219/208 107/220/209
f 67/221/210 187/222/211 107/220/209
f 6/100/100 76/184/175 187/222/211
f 27/109/109 107/220/209 187/222/211
f 108/223/212 188/225/214 41/224/213
f 26/101/101 48/98/98 188/225/214
f 6/100/100 41/224/213 188/225/214
f 19/80/80 109/81/81 189/226/215
f 16/49/49 110/227/216 189/226/215
f 108/223/212 189/226/215 110/227/216
f 65/228/217 190/229/218 110/227/216
f 10/132/132 75/194/183 190/229/218
f 26/101/101 110/227/216 190/229/218
f 24/77/77 111/231/220 191/230/219
f 25/92/92 47/203/192 191/230/219
f 73/200/189 191/230/219 47/203/192
f 24/77/77 112/76/76 192/232/221
f 113/233/222 192/232/221 112/76/76
f 25/92/92 111/231/220 192/232/221
f 15/74/74 64/235/224 193/234/223
f 4/64/64 74/90/90 193/234/223
f 113/233/222 193/234/223 74/90/90
f 22/70/70 114/237/226 194/236/225
f 23/88/88 45/210/199 194/236/225
f 71/207/196 194/236/225 45/210/199
f 22/70/70 115/69/69 195/238/227
f 116/239/228 195/238/227 115/69/69
f 23/88/88 114/237/226 195/238/227
f 14/67/67 63/241/230 196/240/229
f 3/57/57 72/86/86 196/240/229
f 116/239/228 196/240/229 72/86/86
f 20/63/63 117/243/232 197/242/231
f 21/84/84 43/217/206 197/242/231
f 69/214/203 197/242/231 43/217/206
f 20/63/63 118/62/62 198/244/233
f 119/245/234 198/244/233 118/62/62
f 21/84/84 117/243/232 198/244/233
f 13/60/60 61/247/236 199/246/235
f 2/50/50 70/82/82 199/246/235
f 119/245/234 199/246/235 70/82/82
f 18/56/56 120/249/238 200/248/237
f 19/80/80 41/224/213 200/248/237
f 67/221/210 200/248/237 41/224/213
f 18/56/56 121/55/55 201/250/239
f 122/251/240 201/250/239 121/55/55
f 19/80/80 120/249/238 201/250/239
f 11/53/53 58/253/242 202/252/241
f 1/15/15 68/78/78 202/252/241
f 122/251/240 202/252/241 68/78/78
f 16/49/49 123/255/244 203/254/243
f 17/96/96 39/196/185 203/254/243
f 65/228/217 203/254/243 39/196/185
f 16/49/49 124/48/48 204/256/245
f 125/257/246 204/256/245 124/48/48
f 17/96/96 123/255/244 204/256/245
f 12/19/19 59/259/248 205/258/247
f 5/71/71 66/94/94 205/258/247
f 125/257/246 205/258/247 66/94/94
f 126/43/43 301/438/329 207/42/42
f 301/438/329 300/260/249 207/42/42
f 15/74/74 37/75/75 206/44/44
f 34/45/45 206/44/44 37/75/75
f 137/17/17 299/459/267 216/18/18
f 299/459/267 303/262/251 216/18/18
f 62/35/35 318/434/397 129/264/253
f 318/434/397 317/460/335 129/264/253
f 126/43/43 207/42/42 128/37/37
f 53/99/99 326/458/409 92/179/172
f 326/458/409 325/452/338 92/179/172
f 64/235/224 208/36/36 62/35/35
f 15/74/74 128/37/37 208/36/36
f 129/264/253 317/460/335 210/34/34
f 317/460/335 316/266/255 210/34/34
f 14/67/67 36/68/68 209/265/254
f 62/35/35 209/265/254 36/68/68
f 374/23/23 144/430/394 130/268/256
f 60/27/27 310/431/395 132/270/257
f 310/431/395 309/461/332 132/270/257
f 129/264/253 210/34/34 131/29/29
f 127/272/250 145/432/396 373/30/30
f 63/241/230 211/28/28 60/27/27
f 14/67/67 131/29/29 211/28/28
f 132/270/257 309/461/332 213/26/26
f 309/461/332 308/274/260 213/26/26
f 13/60/60 35/61/61 212/271/258
f 60/27/27 212/271/258 35/61/61
f 369/275/2 143/445/391 133/142/140
f 57/10/10 286/428/393 138/276/261
f 286/428/393 285/462/323 138/276/261
f 132/270/257 213/26/26 134/12/12
f 140/8/8 295/7/7 294/463/410
f 294/463/410 31/13/13 140/8/8
f 61/247/236 214/11/11 57/10/10
f 13/60/60 134/12/12 214/11/11
f 12/19/19 135/263/252 215/279/264
f 388/31/31 145/432/396 127/272/250
f 59/259/248 215/279/264 34/45/45
f 136/21/21 216/18/18 135/263/252
f 139/281/265 141/435/398 384/38/38
f 137/283/17 217/426/392 389/4/4
f 31/13/13 294/463/410 136/21/21
f 294/463/410 293/429/326 136/21/21
f 394/185/176 173/454/407 379/180/173
f 130/268/256 144/430/394 368/22/22
f 138/276/261 285/462/323 219/9/9
f 285/462/323 284/287/270 219/9/9
f 11/53/53 32/54/54 218/277/262
f 57/10/10 218/277/262 32/54/54
f 364/39/39 141/435/398 139/281/265
f 135/263/252 303/262/251 302/437/399
f 302/437/399 34/45/45 135/263/252
f 138/276/261 219/9/9 140/8/8
f 383/5/5 217/426/392 137/283/17
f 58/253/242 220/278/263 31/13/13
f 11/53/53 140/8/8 220/278/263
f 221/40/40 226/294/274 229/291/271
f 227/293/273 230/296/276 229/291/271
f 229/291/271 251/297/277 248/295/275
f 230/296/276 231/464/411 251/297/277
f 222/3/3 232/301/281 235/298/278
f 233/300/280 236/302/282 235/298/278
f 235/298/278 230/296/276 227/293/273
f 236/302/282 231/464/411 230/296/276
f 223/24/24 237/306/286 240/303/283
f 238/305/285 241/307/287 240/303/283
f 240/303/283 236/302/282 233/300/280
f 241/307/287 231/464/411 236/302/282
f 224/32/32 242/311/291 245/308/288
f 243/310/290 246/312/292 245/308/288
f 245/308/288 241/307/287 238/305/285
f 246/312/292 231/464/411 241/307/287
f 225/6/6 247/315/295 250/313/293
f 248/295/275 251/297/277 250/313/293
f 250/313/293 246/312/292 243/310/290
f 251/297/277 231/464/411 246/312/292
f 252/158/153 257/319/299 260/316/296
f 258/318/298 261/321/301 260/316/296
f 260/316/296 282/322/302 279/320/300
f 261/321/301 262/465/412 282/322/302
f 253/169/162 263/326/306 266/323/303
f 264/325/305 267/327/307 266/323/303
f 266/323/303 261/321/301 258/318/298
f 267/327/307 262/465/412 261/321/301
f 254/178/171 268/331/311 271/328/308
f 269/330/310 272/332/312 271/328/308
f 271/328/308 267/327/307 264/325/305
f 272/332/312 262/465/412 267/327/307
f 255/191/180 273/336/316 276/333/313
f 274/335/315 277/337/317 276/333/313
f 276/333/313 272/332/312 269/330/310
f 277/337/317 262/465/412 272/332/312
f 256/285/268 278/340/320 281/338/318
f 279/320/300 282/322/302 281/338/318
f 281/338/318 277/337/317 274/335/315
f 282/322/302 262/465/412 277/337/317
f 287/466/25 283/467/141 288/468/352
f 287/466/25 288/468/352 289/341/321
f 285/343/323 286/469/393 289/341/321
f 286/469/393 287/466/25 289/341/321
f 290/342/322 284/289/270 285/343/323
f 295/470/7 291/282/266 296/399/370
f 295/470/7 296/399/370 297/344/324
f 293/346/326 294/471/410 297/344/324
f 294/471/410 295/470/7 297/344/324
f 298/345/325 292/290/16 293/346/326
f 303/472/251 299/284/267 304/403/374
f 303/472/251 304/403/374 305/347/327
f 301/349/329 302/473/399 305/347/327
f 302/473/399 303/472/251 305/347/327
f 306/348/328 300/280/249 301/349/329
f 311/474/33 307/286/269 312/379/356
f 311/474/33 312/379/356 313/350/330
f 309/352/332 310/475/395 313/350/330
f 310/475/395 311/474/33 313/350/330
f 314/351/331 308/476/260 309/352/332
f 319/477/41 315/273/259 320/387/360
f 319/477/41 320/387/360 321/353/333
f 317/355/335 318/478/397 321/353/333
f 318/478/397 319/477/41 321/353/333
f 322/354/334 316/269/255 317/355/335
f 327/479/178 323/186/177 328/410/378
f 327/479/178 328/410/378 329/356/336
f 325/358/338 326/480/409 329/356/336
f 326/480/409 327/479/178 329/356/336
f 330/357/337 324/481/105 325/358/338
f 335/137/137 331/443/136 336/482/364
f 335/137/137 336/482/364 337/359/339
f 333/361/341 334/456/408 337/359/339
f 334/456/408 335/137/137 337/359/339
f 338/360/340 332/145/142 333/361/341
f 343/483/168 339/484/167 344/485/382
f 343/483/168 344/485/382 345/362/342
f 341/364/344 342/486/406 345/362/342
f 342/486/406 343/483/168 345/362/342
f 346/363/343 340/113/113 341/364/344
f 351/487/159 347/163/158 352/420/386
f 351/487/159 352/420/386 353/365/345
f 349/367/347 350/488/405 353/365/345
f 350/488/405 351/487/159 353/365/345
f 354/366/346 348/121/121 349/367/347
f 359/489/150 355/152/149 360/424/390
f 359/489/150 360/424/390 361/368/348
f 357/370/350 358/490/404 361/368/348
f 358/490/404 359/489/150 361/368/348
f 362/369/349 356/129/129 357/370/350
f 283/144/141 363/143/1 365/371/351
f 288/372/352 365/371/351 366/373/353
f 366/375/353 367/376/354 290/342/322
f 367/376/354 364/39/39 284/289/270
f 222/3/3 234/299/279 365/377/351
f 234/299/279 227/293/273 366/375/353
f 366/375/353 227/293/273 226/294/274
f 367/376/354 226/294/274 221/40/40
f 307/286/269 368/22/22 370/378/355
f 312/379/356 370/378/355 371/380/357
f 371/381/357 372/384/358 314/382/331
f 372/384/358 369/275/2 308/274/260
f 223/24/24 239/304/284 370/378/355
f 239/304/284 233/300/280 371/380/357
f 371/380/357 233/300/280 232/301/281
f 372/385/358 232/301/281 222/3/3
f 315/273/259 373/30/30 375/386/359
f 320/387/360 375/386/359 376/388/361
f 376/388/361 377/389/362 322/354/334
f 377/389/362 374/23/23 316/269/255
f 224/32/32 244/309/289 375/386/359
f 244/309/289 238/305/285 376/388/361
f 376/388/361 238/305/285 237/306/286
f 377/389/362 237/306/286 223/24/24
f 331/136/136 378/135/135 380/390/363
f 336/391/364 380/390/363 381/392/365
f 381/392/365 382/395/366 338/394/340
f 382/395/366 379/180/173 332/182/142
f 252/158/153 259/317/297 380/390/363
f 259/317/297 279/320/300 381/392/365
f 381/392/365 279/320/300 278/340/320
f 382/395/366 278/340/320 256/285/268
f 225/6/6 383/5/5 385/396/367
f 247/315/295 385/396/367 386/397/368
f 386/397/368 387/398/369 228/292/272
f 387/398/369 384/38/38 221/40/40
f 292/290/16 298/345/325 385/396/367
f 298/345/325 297/344/324 386/397/368
f 386/397/368 297/344/324 296/399/370
f 387/398/369 296/399/370 291/282/266
f 224/32/32 388/31/31 390/400/371
f 242/311/291 390/400/371 391/401/372
f 391/401/372 392/402/373 249/314/294
f 392/402/373 389/4/4 225/6/6
f 300/280/249 306/348/328 390/400/371
f 306/348/328 305/347/327 391/401/372
f 391/401/372 305/347/327 304/403/374
f 392/402/373 304/403/374 299/284/267
f 255/191/180 393/190/103 395/404/375
f 273/336/316 395/404/375 396/405/376
f 396/405/376 397/406/377 280/339/319
f 397/406/377 394/185/176 256/285/268
f 324/105/105 330/408/337 395/407/375
f 330/408/337 329/491/336 396/409/376
f 396/405/376 329/356/336 328/410/378
f 397/406/377 328/410/378 323/186/177
f 254/178/171 398/111/111 400/411/379
f 268/331/311 400/411/379 401/412/380
f 401/412/380 402/413/381 275/334/314
f 402/413/381 399/189/166 255/191/180
f 340/113/113 346/363/343 400/411/379
f 346/363/343 345/362/342 401/412/380
f 401/414/380 345/492/342 344/415/382
f 402/416/381 344/415/382 339/174/167
f 253/169/162 403/119/119 405/417/383
f 263/326/306 405/417/383 406/418/384
f 406/418/384 407/419/385 270/329/309
f 407/419/385 404/162/157 254/178/171
f 348/121/121 354/366/346 405/417/383
f 354/366/346 353/365/345 406/418/384
f 406/418/384 353/365/345 352/420/386
f 407/419/385 352/420/386 347/163/158
f 252/158/153 408/127/127 410/421/387
f 257/319/299 410/421/387 411/422/388
f 411/422/388 412/423/389 265/324/304
f 412/423/389 409/151/148 253/169/162
f 356/129/129 362/369/349 410/421/387
f 362/369/349 361/368/348 411/422/388
f 411/422/388 361/368/348 360/424/390
f 412/423/389 360/424/390 355/152/149
